<svg width="18" height="16" viewBox="0 0 18 16" fill="none" xmlns="http://www.w3.org/2000/svg">
<path d="M9.86222 5.52399C9.86222 5.97111 9.49976 6.33357 9.05264 6.33357C8.60551 6.33357 8.24305 5.97111 8.24305 5.52399C8.24305 5.07686 8.60551 4.7144 9.05264 4.7144C9.49976 4.7144 9.86222 5.07686 9.86222 5.52399Z" fill="#F5C678"/>
<path d="M9.05264 7.75035C9.38798 7.75035 9.65983 8.0222 9.65983 8.35754V12.4055C9.65983 12.7408 9.38798 13.0127 9.05264 13.0127C8.71729 13.0127 8.44544 12.7408 8.44544 12.4055V8.35754C8.44544 8.0222 8.71729 7.75035 9.05264 7.75035Z" fill="#F5C678"/>
<path fill-rule="evenodd" clip-rule="evenodd" d="M10.8907 1.47009C10.0066 0.17664 8.09861 0.176635 7.21456 1.47009L6.86488 1.9817C4.6741 5.18703 2.79184 8.59266 1.24332 12.153L1.17029 12.3209C0.624579 13.5755 1.44903 15.0002 2.80877 15.1522C6.95842 15.6159 11.1468 15.6159 15.2965 15.1522C16.6562 15.0002 17.4807 13.5755 16.935 12.3209L16.8619 12.153C15.3134 8.59266 13.4311 5.18704 11.2404 1.9817L10.8907 1.47009ZM8.21714 2.15533C8.61898 1.5674 9.48626 1.5674 9.8881 2.15533L10.2378 2.66695C12.3853 5.80897 14.2304 9.14733 15.7483 12.6373L15.8213 12.8052C16.0411 13.3104 15.7091 13.8841 15.1616 13.9453C11.1016 14.3991 7.00366 14.3991 2.94366 13.9453C2.39614 13.8841 2.06416 13.3104 2.28389 12.8052L2.35693 12.6373C3.87487 9.14733 5.71995 5.80897 7.86746 2.66694L8.21714 2.15533Z" fill="#F5C678"/>
<path d="M9.86222 5.52399C9.86222 5.97111 9.49976 6.33357 9.05264 6.33357C8.60551 6.33357 8.24305 5.97111 8.24305 5.52399C8.24305 5.07686 8.60551 4.7144 9.05264 4.7144C9.49976 4.7144 9.86222 5.07686 9.86222 5.52399Z" stroke="#F5C678" stroke-linejoin="round"/>
<path d="M9.05264 7.75035C9.38798 7.75035 9.65983 8.0222 9.65983 8.35754V12.4055C9.65983 12.7408 9.38798 13.0127 9.05264 13.0127C8.71729 13.0127 8.44544 12.7408 8.44544 12.4055V8.35754C8.44544 8.0222 8.71729 7.75035 9.05264 7.75035Z" stroke="#F5C678" stroke-linejoin="round"/>
<path fill-rule="evenodd" clip-rule="evenodd" d="M10.8907 1.47009C10.0066 0.17664 8.09861 0.176635 7.21456 1.47009L6.86488 1.9817C4.6741 5.18703 2.79184 8.59266 1.24332 12.153L1.17029 12.3209C0.624579 13.5755 1.44903 15.0002 2.80877 15.1522C6.95842 15.6159 11.1468 15.6159 15.2965 15.1522C16.6562 15.0002 17.4807 13.5755 16.935 12.3209L16.8619 12.153C15.3134 8.59266 13.4311 5.18704 11.2404 1.9817L10.8907 1.47009ZM8.21714 2.15533C8.61898 1.5674 9.48626 1.5674 9.8881 2.15533L10.2378 2.66695C12.3853 5.80897 14.2304 9.14733 15.7483 12.6373L15.8213 12.8052C16.0411 13.3104 15.7091 13.8841 15.1616 13.9453C11.1016 14.3991 7.00366 14.3991 2.94366 13.9453C2.39614 13.8841 2.06416 13.3104 2.28389 12.8052L2.35693 12.6373C3.87487 9.14733 5.71995 5.80897 7.86746 2.66694L8.21714 2.15533Z" stroke="#F5C678" stroke-linejoin="round"/>
</svg>
