<svg width="423" height="180" viewBox="0 0 423 180" fill="none" xmlns="http://www.w3.org/2000/svg">
<g clip-path="url(#clip0_59_447)">
<rect width="422.449" height="179.779" fill="white"/>
<g clip-path="url(#clip1_59_447)">
<rect width="422.449" height="179.779" fill="#F5C678"/>
<mask id="mask0_59_447" style="mask-type:alpha" maskUnits="userSpaceOnUse" x="0" y="0" width="423" height="180">
<rect width="423" height="180" fill="#F5C678"/>
</mask>
<g mask="url(#mask0_59_447)">
<path d="M366.897 100.653C369.967 94.8976 378.493 87.0993 381.892 85.0978M365.018 88.036C365.782 88.3081 379.198 96.312 382.178 98.1826M13.0988 129.006C13.8575 122.527 18.9515 112.156 21.3863 109.053M6.74716 117.943C7.55729 117.918 22.9683 120.477 26.4256 121.132M150.038 31.0673C148.215 29.7653 145.44 27.1381 144.956 24.9019C144.548 23.0209 147.366 17.8915 147.427 14.8022C147.44 14.1778 147.49 13.4874 147.398 12.9303C147.021 9.9769 148.357 4.40606 149.659 5.07687C151.086 5.81218 153.912 7.70468 155.397 9.15073C158.066 7.1963 166.224 6.41334 169.149 8.28027C169.756 7.37754 173.372 3.25965 173.835 3.81829C175.107 5.35486 177.173 10.5396 176.625 13.6774C176.983 16.4037 177.255 18.2288 178.249 20.7987C179.961 25.2255 178.541 26.5224 174.664 29.8791M163.523 59.3251C159.593 60.6798 151.716 60.787 150.667 53.778C150.341 51.6028 150.688 49.4526 151.994 47.6478C154.72 43.8804 161.644 44.269 163.784 48.4043C164.018 48.8568 164.325 50.3199 164.27 50.2565C162.778 48.528 157.874 49.9714 158.184 53.0797C158.421 55.453 160.81 56.8903 163.565 56.5201M152.13 27.3494C156.338 24.0065 162.617 23.6433 167.637 24.9062C169.133 25.2826 172.263 26.8611 173.088 27.7673M208.627 169.178C211.696 163.422 220.222 155.624 223.621 153.622M206.748 156.561C207.511 156.833 220.927 164.837 223.908 166.707M387.85 120.177C389.605 122.171 391.475 124.063 392.611 126.509C397.494 137.023 396.801 154.412 394.044 165.491M387.85 120.177C383.821 123.297 376.972 121.132 375.676 115.579C375.028 112.803 374.695 109.843 374.581 106.505C377.454 106.758 381.083 107.442 383.668 108.235C388.541 109.73 390.128 116.143 387.85 120.177ZM394.044 165.491C395.74 155.231 401.764 148.7 407.957 146.104C410.766 144.927 413.494 144.396 416.695 144.188C416.6 146.576 415.59 151.122 414.916 153.464C412.162 163.03 402.55 164.097 394.044 165.491ZM20.3869 91.2934C22.6825 92.6298 25.0556 93.8318 26.9075 95.7929C34.8663 104.222 39.7117 120.937 40.6025 132.318M20.3869 91.2934C17.5519 95.5278 10.3702 95.6419 7.38313 90.7838C5.89023 88.3558 4.63804 85.6534 3.47388 82.5232C6.27837 81.8539 9.93769 81.3537 12.6405 81.288C17.7359 81.1642 21.2709 86.7456 20.3869 91.2934ZM40.6025 132.318C38.9649 122.048 42.6122 113.947 47.6654 109.525C49.9572 107.52 52.3772 106.153 55.3478 104.942C56.0134 107.237 56.4941 111.869 56.5958 114.304C57.0113 124.25 48.2303 128.304 40.6025 132.318ZM113.263 21.8494C119.587 20.2519 131.092 21.3199 134.859 22.4903M121.339 11.9755C121.651 12.7236 124.747 28.0359 125.366 31.4997M17.248 46.6724C17.7136 46.9724 17.0732 47.448 16.7492 47.4462C15.8713 47.4413 15.5047 46.3974 15.7003 45.6748C16.0502 44.3824 17.5818 43.9088 18.7442 44.3509C20.4502 44.9997 21.0442 47.0751 20.3433 48.6674C19.409 50.7896 16.7728 51.5063 14.7542 50.5415C12.214 49.3273 11.3737 46.1231 12.605 43.6798C14.0963 40.7207 17.8722 39.7563 20.7393 41.2556C24.118 43.0224 25.2068 47.3721 23.4386 50.6624C21.3971 54.4612 16.4724 55.6745 12.7592 53.6368C8.54 51.3214 7.20203 45.8206 9.50971 41.6848C12.0986 37.0451 18.1761 35.5823 22.7343 38.1603C27.7948 41.0223 29.3824 47.6769 26.5339 52.6574M396.833 61.4857C396.975 62.0213 396.181 61.9403 395.943 61.7204C395.298 61.1245 395.732 60.1067 396.364 59.7053C397.494 58.9872 398.944 59.6709 399.504 60.7815C400.325 62.4113 399.364 64.344 397.772 65.0465C395.651 65.9828 393.221 64.7333 392.382 62.6593C391.326 60.0494 392.868 57.1173 395.425 56.1444C398.522 54.9662 401.96 56.8016 403.065 59.8426C404.367 63.4262 402.236 67.3714 398.711 68.6073C394.641 70.0342 390.188 67.6074 388.821 63.5982C387.269 59.0427 389.992 54.0797 394.486 52.5836C399.527 50.9053 405 53.9256 406.626 58.9037C408.43 64.4302 405.113 70.4134 399.65 72.1681M120.809 168.396C118.842 169.387 117.121 170.433 115.245 171.489C111.654 173.509 102.705 172.215 99.8626 169.422C99.1483 168.72 98.8429 167.53 98.6099 166.582C97.4973 162.051 103.629 160.631 105.86 157.958C106.221 157.525 107.011 154.5 107.441 153.632C109.85 148.768 114.594 144.917 120.243 144.878C122.418 144.822 124.341 145.023 126.03 145.426C130.731 146.549 134.22 149.004 136.445 153.51C136.683 153.998 137.228 155.433 137.674 155.871C139.045 157.218 144.59 160.991 144.59 160.991C147.542 161.213 156.165 161.876 154.833 166.671C154.616 167.454 150.889 169.273 150.214 169.422C140.342 171.594 137.435 166.987 133.78 164.876C131.44 163.524 128.223 162.235 126.579 159.568C125.696 158.136 125.66 156.275 124.886 154.788M98.7413 163.383C97.0243 163.025 92.2716 162.427 94.7747 158.684C96.7647 155.708 104.171 156.591 106.584 155.401M131.374 147.686C132.426 147.51 133.624 147.076 134.873 146.812C138.235 146.101 141.695 145.025 144.87 143.71C150.336 141.447 155.604 138.357 161.725 138.231C164.936 138.166 168.325 138.88 171.432 139.654C173.746 140.231 176.975 141.994 178.541 143.863C179.874 145.452 180.566 147.09 182.41 148.229C183.805 149.091 190.683 150.869 191.663 152.202C192.674 153.577 192.225 154.802 192.013 155.085C189.765 158.081 181.228 155.483 178.3 154.704C177.787 154.568 177.279 154.439 176.776 154.277C176.207 154.093 175.618 153.977 175.054 153.779C169.352 151.681 166.499 154.983 163.457 156.031C161.122 156.836 159.034 157.662 156.673 158.303C153.955 159.327 150.927 159.71 148.425 161.263M166.088 138.542C169.027 137.554 169.67 132.9 169.454 130.23C169.309 128.443 167.81 126.424 168.448 124.599C169.076 122.801 171.406 122.944 172.414 124.308C175.179 128.052 172.878 136.388 169.294 139.116M106.435 156.328C107.594 156.724 107.954 156.653 108.294 157.439C108.61 158.169 107.057 158.532 105.983 157.855M128.768 162.401C125.352 162.909 123.466 163.229 121.542 166.303C121.144 166.939 120.718 168.794 120.776 169.574C120.928 171.606 125.54 172.659 128.005 172.413C131.199 172.093 135.315 167.636 136.269 167.106M104.612 71.068C102.527 64.1134 97.2217 60.1596 96.4601 59.8496C93.5491 58.665 92.2319 68.0097 92.1372 69.3906C92.0379 70.84 91.147 73.99 91.1686 73.9292C90.2637 76.5344 87.6792 78.5417 85.8755 80.5727C83.9539 82.7363 82.0338 84.9123 80.0154 86.9952C78.5701 88.4867 76.2588 90.498 75.4999 92.5023C73.8779 96.7858 75.6237 101.878 77.3468 105.853C78.3659 108.204 79.8967 110.529 82.2517 113.221M100.908 72.0115C102.602 71.9917 104.169 71.1562 105.892 71.08C113.544 70.7415 119.997 74.3435 125.626 79.0467C127.032 80.221 127.912 81.8489 129.22 83.0551C130.794 82.6013 132.358 81.8257 133.964 81.3242C136.328 80.5859 141.139 79.611 143.219 81.5497C144.464 82.71 143.187 84.6077 142.734 85.8383C140.73 91.2701 138.986 96.9345 134.778 101.196C134.091 105.249 133.174 109.228 132.027 113.173C131.273 115.77 130.748 118.881 128.59 120.857C123.575 125.449 113.52 125.068 107.191 124.44C104.15 124.292 101.755 123.556 98.8325 122.822C94.2249 121.501 85.1793 116.402 82.6477 113.51M87.6144 96.4173C83.9081 99.753 94.318 105.31 95.9107 102.318M95.9107 102.318C94.7958 105.551 96.5986 106.407 99.4094 107.629C102.491 108.97 105.133 110.13 106.021 105.969M95.9107 102.318C95.824 101.58 95.7107 101.163 95.5829 100.583C94.7769 96.9263 100.696 99.9892 99.4633 101.627C98.8548 102.436 96.8426 102.072 95.9107 102.318ZM95.9107 102.318C94.5397 103.892 93.7222 105.877 93.1924 107.855M89.3839 101.579C88.8933 102.745 88.1629 104.034 88.5316 105.338C88.7869 106.241 89.9855 107.405 90.6482 107.995C93.3529 110.404 99.4231 114.159 100.36 108.146M139.962 87.1081C140.411 86.1669 140.87 85.1097 141.25 84.249C141.665 83.3114 137.965 85.546 137.494 85.9142C136.649 86.575 135.692 87.619 135.005 88.4861C133.803 90.0045 135.269 92.7297 136.012 94.2627M93.3408 73.5563C94.6171 73.154 95.386 72.7361 96.7344 71.93C97.6785 71.3654 99.426 71.1788 97.4682 65.6075C97.1611 64.7333 96.3069 63.5162 95.6003 62.5045C95.6003 62.5045 94.8784 63.9618 94.7787 66.5119M10.9017 143.11C9.24459 148.039 9.77445 154.062 12.0314 158.687C22.4588 160.449 32.8147 162.2 43.4967 161.864C54.1786 161.529 64.8968 159.116 75.6886 156.687C77.2568 152.938 77.4206 147.109 76.3009 143.36M77.3398 25.739C77.3398 26.8261 75.6576 27.8939 72.4643 28.8337C69.271 29.7734 64.6805 30.5517 59.1596 31.0893C53.6387 31.627 47.3845 31.9048 41.0328 31.8945C34.6812 31.8842 28.4587 31.5862 22.9983 31.0308C17.5378 30.4754 13.0342 29.6824 9.94534 28.7324C6.85649 27.7825 5.29264 26.7095 5.41281 25.6225C5.76375 20.4209 8.50743 14.3562 10.5605 10.1328M70.8184 10.2399C73.9176 14.1476 76.1743 19.4839 77.3074 25.5021M195.182 61.3927C190.039 64.552 185.877 78.0699 188.236 84.7448M199.861 63.0519C196.285 63.2123 191.948 67.7683 190.894 75.2353C190.222 79.9978 191.926 83.7 196.388 85.7615M190.049 62.4507C187.767 66.6233 184.9 74.9601 184.292 80.7246M227.863 93.2919C214.994 91.2907 202.431 94.9412 199.232 105.953C197.442 112.111 199.082 119.618 200.716 125.63C201.942 130.139 203.288 136.149 207.389 138.935C209.313 140.243 214.235 139.807 214.235 139.807C214.235 139.807 218.748 140.139 219.056 138.171C219.484 135.435 216.433 134.237 215.434 132.894C213.934 130.877 213.84 127.809 213.28 125.488M209.204 103.768L214.791 107.926M214.66 102.47C212.493 104.28 210.248 106.321 209.011 108.902M208.716 117.949C210.864 124.513 216.023 128.444 219.511 129.866C219.511 129.866 222.501 130.843 224.635 131.017M222.747 118.058C222.747 118.058 222.896 122.184 223.298 124.961C223.874 128.951 225.228 133.16 228.052 136.809C230.507 139.982 235.554 140.035 240.771 139.049C240.771 139.049 243.552 137.911 241.764 134.933C240.472 132.781 238.786 133.699 237.666 129.528C236.734 124.304 239.78 126.668 241.956 119.558M249.99 115.121C251.697 113.397 253.2 112.503 255.261 111.459C255.889 111.141 256.18 110.277 256.732 109.261C258.662 105.708 263.574 104.133 263.807 105.164C264.2 106.898 264.802 110.362 264.978 111.584C267.974 111.435 268.77 111.914 270.294 112.961M238.805 132.198C240.886 131.95 248.213 132.352 250.764 132.507C255.222 132.779 261.735 134.691 264.828 134.648C270.428 134.571 276.522 133.21 282.065 132.409C285.377 131.931 289.162 132.459 290.185 129.03C290.796 126.982 287.863 123.922 283.54 124.036C279.441 124.143 271.663 124.715 268.218 122.923C262.626 120.015 257.081 119.675 253.602 118.285C249.242 116.319 244.94 107.438 244.94 107.438C244.94 107.438 240.935 99.4851 233.602 95.7797M212.072 94.1095C210.574 92.4173 208.894 85.8222 215.424 81.2479C220.794 77.4862 232.026 77.8051 234.818 84.8553C236.431 88.9294 235.721 93.7915 232.24 96.6377C228.339 99.8276 224.647 99.1188 224.647 99.1188C224.647 99.1188 227.39 96.3599 227.863 93.2834C228.143 91.462 227.628 89.5294 225.276 87.992C221.32 85.4067 215.556 88.3576 215.44 93.174M269.621 113.864C272.17 110.34 278.77 109.352 278.81 109.96C278.976 112.469 278.522 115.806 278.157 116.919C279.484 118.342 278.839 120.875 279.003 120.926C281.981 121.852 281.903 121.184 283.487 123.992M152.441 97.7951C159.491 95.5372 169.332 95.2708 175.954 96.8456M151.404 103.72C157.93 102.065 169.028 100.729 177.182 102.515M316.233 52.2419C316.374 53.3444 314.55 53.0049 314.908 54.3754C315.666 57.2722 325.794 60.8295 328.654 60.7493C331.631 60.6657 331.775 58.4479 331.775 58.4479M331.775 58.4479C331.775 58.4479 330.581 61.0993 333.674 62.3509C342.909 66.0872 346.017 65.3353 346.457 63.8241C346.681 63.0547 345.769 61.7619 346.323 61.4783M331.775 58.4479C331.775 58.4479 336.057 57.3035 335.967 56.5866C335.892 55.9924 329.732 54.1862 329.395 54.7697C328.957 55.5299 331.775 58.4479 331.775 58.4479ZM316.875 56.4967C316.555 57.7008 317 60.0694 317.821 59.5595C318.344 59.2342 319.349 57.9297 319.349 57.9297M341.523 64.8775C341.523 64.8775 341.197 66.1177 341.241 66.7285C341.342 68.1383 343.991 65.8664 344.248 65.006M317.093 7.2002C317.093 7.2002 321.121 14.7693 319.371 17.3932C317.898 19.6019 312.32 21.4394 312.32 21.4394M380.213 28.6761C380.213 28.6761 372.174 31.3719 371.255 34.7406C370.229 38.4996 374.848 42.8684 374.848 42.8684M269.478 54.8418C270.237 48.3633 275.331 37.9923 277.766 34.8889M263.127 43.7795C263.937 43.7543 279.348 46.3132 282.805 46.9678M129.093 66.6006L120.119 61.5112L122.186 51.4039L132.438 50.2467L136.706 59.6388L129.093 66.6006ZM368.937 3.4825L368.641 8.90838L372.943 12.2283L367.691 13.6234L365.863 18.7406L362.913 14.1769L357.481 14.0195L360.91 9.80398L359.381 4.58953L364.45 6.54786L368.937 3.4825ZM153.468 25.3655C148.879 31.6249 143.214 45.6932 144.651 55.5922C146.173 62.3091 148.684 63.4524 159.722 63.3276C168.396 63.2295 178.157 64.8447 180.411 56.0527C181.292 45.9056 175.447 29.6634 170.911 24.5168C170.513 24.0989 167.953 22.2435 165.433 21.7848C162.336 21.2211 159.37 20.9036 155.256 23.6393C155.256 23.6393 154.122 24.5127 153.468 25.3655ZM45.9438 94.9053C45.9438 97.0137 44.2157 98.7229 42.0839 98.7229C39.9522 98.7229 38.2241 97.0137 38.2241 94.9053C38.2241 92.7969 39.9522 91.0877 42.0839 91.0877C44.2157 91.0877 45.9438 92.7969 45.9438 94.9053ZM53.9436 45.5811C53.9436 47.6895 52.2155 49.3986 50.0838 49.3986C47.952 49.3986 46.2239 47.6895 46.2239 45.5811C46.2239 43.4727 47.952 41.7635 50.0838 41.7635C52.2155 41.7635 53.9436 43.4727 53.9436 45.5811ZM103.388 168.869C103.165 168.236 102.079 167.524 101.936 167.329C101.084 166.166 102.087 165.473 104.136 165.845C106.542 166.282 107.013 168.328 104.571 168.202C104.068 168.176 103.569 168.435 103.388 168.869ZM115.355 158.747C111.341 159.124 114.862 161.325 116.905 160.299C117.849 159.826 116.63 158.779 115.355 158.747ZM285.228 13.8482C285.228 15.9566 283.499 17.6658 281.368 17.6658C279.236 17.6658 277.508 15.9566 277.508 13.8482C277.508 11.7399 279.236 10.0307 281.368 10.0307C283.499 10.0307 285.228 11.7399 285.228 13.8482ZM316.659 89.9403C316.659 92.0486 314.931 93.7578 312.799 93.7578C310.668 93.7578 308.939 92.0486 308.939 89.9403C308.939 87.8319 310.668 86.1227 312.799 86.1227C314.931 86.1227 316.659 87.8319 316.659 89.9403ZM195.271 131.241C195.271 133.35 193.543 135.059 191.411 135.059C189.28 135.059 187.552 133.35 187.552 131.241C187.552 129.133 189.28 127.424 191.411 127.424C193.543 127.424 195.271 129.133 195.271 131.241ZM94.3998 87.5699C93.3319 86.969 91.5261 87.2394 90.3744 87.6368C86.5318 88.9628 92.9189 91.487 95.1592 91.1255C96.987 90.8306 96.0654 88.0867 94.3998 87.5699ZM111.399 97.6552C106.073 98.5101 111.616 104.275 114.773 103.261C116.695 102.643 113.434 97.7273 111.399 97.6552ZM76.0509 143.119C76.0509 144.933 61.5005 146.403 43.5516 146.403C25.6027 146.403 11.0523 144.933 11.0523 143.119C11.0523 141.306 25.6027 139.836 43.5516 139.836C61.5005 139.836 76.0509 141.306 76.0509 143.119ZM47.6138 168.585C47.6138 171.85 44.9407 174.496 41.6432 174.496C38.3458 174.496 35.6726 171.85 35.6726 168.585C35.6726 165.321 38.3458 162.675 41.6432 162.675C44.9407 162.675 47.6138 165.321 47.6138 168.585ZM43.6041 161.707C43.6041 162.681 42.7313 163.47 41.6548 163.47C40.5782 163.47 39.7055 162.681 39.7055 161.707C39.7055 160.734 40.5782 159.945 41.6548 159.945C42.7313 159.945 43.6041 160.734 43.6041 161.707ZM149.223 128.576L139.697 132.535L132.988 124.698L138.367 115.896L148.402 118.292L149.223 128.576ZM96.5462 137.992L91.3346 139.531L89.6475 144.696L86.5738 140.215L81.1398 140.206L84.4518 135.898L82.7806 130.728L87.9012 132.547L92.3023 129.359L92.155 134.791L96.5462 137.992ZM296.127 117.945C301.77 114.57 300.941 109.49 296.283 100.499C303.171 112.327 305.82 111.237 311.466 108.483C307.462 111.08 304.864 115.28 311.095 126.147C306.56 118.318 302.196 114.152 296.127 117.945ZM394.505 21.6056C400.389 24.5415 404.222 21.1053 409.286 12.3375C403.034 24.5129 405.379 26.1571 410.741 29.4296C406.396 27.4557 401.459 27.5303 395.661 38.6351C399.813 30.5961 400.971 24.6747 394.505 21.6056ZM70.7291 10.0736C70.7291 12.4534 57.2943 14.3826 40.7216 14.3826C24.1489 14.3826 10.714 12.4534 10.714 10.0736C10.714 7.69374 24.1489 5.76453 40.7216 5.76453C57.2943 5.76453 70.7291 7.69374 70.7291 10.0736ZM198.972 13.0365L198.676 18.4624L202.978 21.7823L197.726 23.1774L195.898 28.2946L192.948 23.7309L187.516 23.5735L190.945 19.358L189.416 14.1435L194.485 16.1019L198.972 13.0365ZM237.314 69.9361L228.006 65.4866L229.362 55.2595L239.507 53.3884L244.422 62.459L237.314 69.9361ZM254.199 146.142L257.339 150.576L262.772 150.504L259.525 154.861L261.273 160.006L256.125 158.264L251.772 161.516L251.839 156.082L247.4 152.947L252.588 151.332L254.199 146.142ZM72.2978 53.6026C62.4459 58.6569 52.2701 62.285 42.4738 67.7251C40.9874 66.336 39.9938 65.346 38.0725 64.7334C34.1133 63.4711 30.3261 66.1914 31.0019 70.4591C31.4598 73.3508 33.6799 75.2885 36.5235 75.6236C37.0084 75.6807 39.1076 75.268 38.9908 76.3125C38.9124 77.0142 38.4168 77.8412 38.2777 78.5833C37.6596 81.8817 40.3963 84.7563 43.575 85.6732C47.521 86.8114 49.3735 82.5055 49.1523 81.2615C48.939 80.0618 48.1576 78.3612 46.734 77.0628C56.528 72.1902 66.3288 66.7043 75.9716 61.4875C77.7011 62.8575 78.1084 64.4538 80.655 64.8987C84.9512 65.6491 87.723 62.0315 86.2427 57.9646C85.2788 55.3166 80.702 55.0192 80.6545 53.7101C80.6225 52.8257 81.7775 52.0771 81.4975 50.533C80.8837 47.1485 75.813 46.1432 73.1595 47.6013C71.102 48.7318 68.3291 53.3164 72.2978 53.6026ZM46.3189 25.437C50.5869 25.2185 54.8002 25.5628 59.0949 25.1974C59.4753 25.9344 59.722 26.449 60.3586 26.9784C61.6703 28.0693 63.4063 27.7071 63.6788 26.0708C63.8634 24.962 63.2785 23.9103 62.2664 23.3313C62.0938 23.2326 61.2657 23.0414 61.4369 22.6865C61.5519 22.4481 61.8368 22.2321 61.9792 21.989C62.6123 20.9084 61.9508 19.438 60.8858 18.5967C59.5638 17.5524 58.3501 18.7943 58.2797 19.2752C58.2117 19.739 58.2928 20.4737 58.661 21.1681C54.4366 21.3309 50.1346 21.712 45.9241 22.0223C45.4514 21.2528 45.4961 20.6158 44.6074 20.0456C43.1081 19.0835 41.6383 19.9307 41.6884 21.625C41.721 22.7282 43.3797 23.5734 43.2369 24.0495C43.1404 24.3712 42.6209 24.4527 42.5355 25.0504C42.3482 26.3607 44.1031 27.5389 45.2645 27.4455C46.1651 27.373 47.7537 26.18 46.3189 25.437ZM365.097 147.323C359.806 147.323 360.045 153.24 359.462 153.349C357.321 153.75 355.973 155.901 355.954 157.388C355.913 160.503 358.068 163.385 361.224 163.164C365.173 162.887 368.077 157.32 368.077 157.32C368.077 157.32 374.48 159.259 377.24 155.432C378.686 153.425 377.515 148.336 372.908 147.731C371.15 147.5 369.836 148.407 369.748 148.348C368.828 147.743 366.809 147.323 365.097 147.323ZM365.439 141.5C363.324 141.22 359.08 132.557 364.565 131.615C370.052 130.674 368.297 140.93 365.439 141.5ZM357.903 144.781C355.851 145.367 348.504 139.116 353.159 136.065C357.815 133.013 360.297 143.118 357.903 144.781ZM354.775 151.973C353.57 153.357 345.608 152.045 347.591 147.612C349.575 143.178 355.754 149.622 354.775 151.973ZM372.129 144.691C370.474 143.898 369.616 135.874 374.417 136.604C379.22 137.334 374.655 145.008 372.129 144.691ZM369.916 160.999C371.879 160.091 378.044 161.409 380.099 156.051C382.02 151.043 379.419 149.425 378.814 146.46C378.139 143.154 381.173 138.482 377.826 134.43C375.785 131.96 371.402 133.505 371.402 133.505C371.402 133.505 369.826 128.289 364.951 128.184C361.021 128.1 358.477 133.294 358.477 133.294C358.477 133.294 354.168 130.69 351.112 133.442C347.898 136.335 349.212 142.069 349.212 142.069C349.212 142.069 344.708 143.862 344.566 147.614C344.37 152.785 350.514 155.744 352.112 157.576C353.2 158.824 353.795 164.421 358.402 165.827C363.893 167.502 367.944 161.91 369.916 160.999ZM206.112 73.6183C206.112 80.5076 200.527 86.0925 193.637 86.0925C186.748 86.0925 181.163 80.5076 181.163 73.6183C181.163 66.7289 186.748 61.144 193.637 61.144C200.527 61.144 206.112 66.7289 206.112 73.6183ZM399.773 93.7088C399.773 93.7088 397.925 93.5672 397.412 91.8791C396.49 88.845 402.511 85.0391 406.008 83.685C411.055 81.7308 417.019 81.3063 417.958 84.5406C418.282 85.6547 417.215 87.396 417.215 87.396C417.215 87.396 420.454 95.8534 420.093 97.3764C419.655 99.2277 405.4 104.256 404.332 103.817C402.812 103.194 399.773 93.7088 399.773 93.7088ZM155.292 88.3261C149.788 98.9075 150.271 111.228 153.173 113.752C156.056 116.257 173.649 114.878 176.814 112.234C180.757 108.939 175.364 90.4449 171.552 87.3032C171.872 87.0358 172.135 85.3085 171.898 85.2277C171.441 85.0722 170.914 85.4059 170.442 85.3841C169.793 85.3542 169.79 84.6633 168.618 84.6999C168.012 84.7189 167.584 85.3796 166.991 85.4562C166.293 85.5464 165.883 84.7857 165.204 84.8373C164.341 84.9029 163.832 85.7139 163.015 85.8711C162.259 86.0167 161.814 85.4562 161.112 85.4562C160.313 85.4562 159.702 86.1817 158.95 86.3064C157.611 86.5285 157.35 85.8343 156.743 85.9922C155.862 86.0478 156.24 87.1838 154.823 86.8246C154.672 86.7865 155.491 88.2727 155.292 88.3261ZM329.182 119.339C332.301 119.412 355.809 117.432 356.702 116.309C358.345 114.244 358.356 111.932 357.637 110.674C355.823 107.501 352.231 108.18 352.231 108.18C352.231 108.18 353.422 105.663 351.517 103.32C349.898 101.328 346.731 101.054 346.731 101.054C346.731 101.054 346.935 98.9183 345.005 97.6159C343.319 96.6203 341.682 96.427 339.997 95.5237C338.442 94.6905 339.319 92.1884 339.319 92.1884C339.319 92.1884 334.142 95.6233 334.485 99.6272C334.541 100.279 335.315 101.871 335.315 101.871C335.315 101.871 331.074 103.344 329.945 106.781C329.184 109.097 330.157 110.355 330.157 110.355C330.157 110.355 326.926 111.944 326.539 114.05C325.751 118.349 329.182 119.339 329.182 119.339ZM306.857 72.5485C306.857 72.5485 292.497 62.4988 292.111 51.4135C291.97 47.3908 303.469 27.5853 307.601 21.9612C308.88 20.2201 313.508 4.00594 316.413 3.89349C323.705 3.61121 327.865 13.7878 330.375 19.0432C343.659 15.9601 358.787 23.1035 364.848 28.1777C367.025 26.4798 383.083 23.2628 384.008 26.1555C384.319 27.1285 381.949 41.2732 377.882 46.4711C376.908 51.9041 374.596 72.5352 373.216 75.462C368.791 84.8435 344.35 84.4789 344.35 84.4789C344.35 84.4789 316.354 77.4584 306.857 72.5485ZM316.792 45.0433C316.792 45.0433 317.624 43.0691 319.366 42.9284C320.853 42.8083 326.498 45.527 326.528 47.3987C326.541 48.2378 325.124 48.2508 321.534 47.6838C316.69 46.9185 316.792 45.0433 316.792 45.0433ZM342.977 52.6867C343.47 50.9358 349.792 51.3864 351.046 51.8462C353.063 52.5857 352.984 55.6967 351.742 56.1065C350.13 56.6381 343.53 54.9921 342.977 52.6867ZM327.484 38.2284C327.484 38.2284 325.628 39.6385 326.525 41.3516C328.198 44.5462 332.986 41.908 332.018 39.1133C330.84 35.7114 327.484 38.2284 327.484 38.2284ZM341.674 44.8159C341.674 44.8159 342.344 47.049 344.263 46.8089C347.841 46.3613 347.048 40.9519 344.091 40.8793C340.492 40.7909 341.674 44.8159 341.674 44.8159ZM300.954 45.6397C297.082 47.6438 298.335 51.2655 301.993 52.3547C305.975 53.5405 309.532 53.6941 310.614 50.4094C311.54 47.5971 304.715 43.6931 300.954 45.6397ZM355.103 66.1775C354.611 69.3946 358.793 70.7309 361.027 71.2668C364.114 72.0074 366.622 69.7381 365.321 66.6821C362.846 60.8686 355.586 63.0105 355.103 66.1775ZM250.912 30.0764L229.644 38.6646C229.644 38.6646 231.679 48.5149 222.36 47.7389C214.022 47.0445 217.194 37.815 217.194 37.815C217.194 37.815 207.039 37.1416 209.256 29.1584C211.649 20.5402 220.941 26.8997 220.941 26.8997L243.092 18.1903C243.092 18.1903 243.28 9.39719 251.458 10.5919C258.555 11.6288 255.683 19.5825 255.683 19.5825C255.683 19.5825 266.479 20.5964 262.567 29.0741C259.67 35.3515 250.912 30.0764 250.912 30.0764ZM268.749 73.9958C268.749 73.9958 268.077 72.2685 269.377 71.0757C271.713 68.9316 277.75 72.7118 280.484 75.278C284.43 78.9815 287.395 84.1747 284.885 86.4209C284.021 87.1948 281.99 86.9869 281.99 86.9869C281.99 86.9869 275.767 93.5671 274.239 93.9016C272.38 94.3082 261.677 83.6335 261.61 82.4815C261.514 80.8414 268.749 73.9958 268.749 73.9958ZM291.383 164.091C301.522 159.641 311.898 156.633 322.005 151.794C323.405 153.271 324.337 154.319 326.218 155.046C330.094 156.545 334.038 154.058 333.621 149.758C333.338 146.844 331.239 144.775 328.421 144.269C327.941 144.183 325.82 144.468 326 143.433C326.12 142.737 326.665 141.941 326.849 141.209C327.665 137.954 325.107 134.92 321.989 133.813C318.119 132.438 316.01 136.625 316.156 137.88C316.296 139.09 316.973 140.835 318.316 142.217C308.246 146.489 298.132 151.374 288.192 155.999C286.548 154.527 286.238 152.909 283.723 152.312C279.48 151.303 276.495 154.747 277.727 158.896C278.529 161.597 283.08 162.17 283.048 163.48C283.027 164.364 281.829 165.042 282.015 166.6C282.423 170.016 287.424 171.325 290.161 170.03C292.283 169.025 295.327 164.617 291.383 164.091ZM90.6288 43.0302C96.2724 39.6554 95.4427 34.5753 90.7852 25.5846C97.6734 37.4118 100.322 36.3227 105.968 33.5681C101.964 36.1654 99.3664 40.3649 105.597 51.2326C101.062 43.4033 96.6979 39.2372 90.6288 43.0302Z" stroke="white" stroke-opacity="0.35" stroke-width="2" stroke-linecap="round" stroke-linejoin="round"/>
</g>
</g>
</g>
<defs>
<clipPath id="clip0_59_447">
<rect width="422.449" height="179.779" fill="white"/>
</clipPath>
<clipPath id="clip1_59_447">
<rect width="422.449" height="179.779" fill="white"/>
</clipPath>
</defs>
</svg>
